<?xml version="1.0" encoding="UTF-8"?>
<svg width="879" height="879" xmlns="http://www.w3.org/2000/svg">
 <title>tree sara new</title>
 <g>
  <title>Layer 1</title>
  <path id="svg_2" fill="#028600" fill-rule="evenodd" stroke="#028600" stroke-width="0.5px" d="m464.200012,464l-0.200012,0l-0.200012,-0.5l-0.299988,-0.5l-0.299988,-0.200012l-0.200012,-0.299988l-0.200012,-0.299988l-0.299988,-0.200012l2,-6q2,-6 6.299988,-12.200012q4.200012,-6.299988 14.200012,-18.299988q10,-12 31,-33q21,-21 61,-54.5q40,-33.5 48.5,-37q8.5,-3.5 22,-9q13.5,-5.5 15.5,-6.5q2,-1 2.200012,-1.299988l0.299988,-0.200012l0.299988,-0.200012l0.200012,-0.299988l1,-0.5l1,-0.5l0.200012,-0.299988l0.299988,-0.200012l0.299988,-0.200012l0.200012,-0.299988l0.200012,-0.299988l0.299988,-0.200012l0.299988,-0.200012l0.200012,-0.299988l1,-0.299988l1,-0.200012l0,-1l0,-1l-2,0.200012l-2,0.299988l-2,0.5l-2,0.5l-2,0.5q-2,0.5 -12.5,3.5q-10.5,3 -22,4q-11.5,1 -14.5,0q-3,-1 -4.200012,-3.700012q-1.299988,-2.799988 -1.299988,-13.299988l0,-10.5l0,-4.5l0,-4.5l-0.299988,0.199997l-0.200012,0.300003l-0.200012,0.300003l-0.299988,0.199997l-0.299988,0.199997l-0.200012,0.300003l-0.200012,0.300003l-0.299988,0.199997l-0.299988,0.199997l-0.200012,0.300003l-0.200012,0.300003l-0.299988,0.199997l-0.5,1.5l-0.5,1.5l-0.5,1l-0.5,1l-0.5,1.5q-0.5,1.5 -5.5,20q-5,18.5 -9,25.5q-4,7 -15.700012,18.799988q-11.799988,11.700012 -25.599976,23.400024q-13.700012,11.799988 -25.200012,20.299988q-11.5,8.5 -23.799988,14.700012q-12.200012,6.299988 -19.200012,7.299988l-7,1l-0.200012,-0.299988l-0.299988,-0.200012l-0.5,-1l-0.5,-1l0,-11.5q0,-11.5 1,-16.5q1,-5 6,-22.5q5,-17.5 10,-27q5,-9.5 28.5,-38l23.5,-28.5l0.299988,-0.199997l0.200012,-0.300003l0.200012,-0.300003l0.299988,-0.199997l0.5,-1l0.5,-1l0.5,-1l0.5,-1l0.299988,-1l0.200012,-1l-1.5,0.199997l-1.5,0.300003l-1,0.5l-1,0.5l-0.200012,0.300003l-0.299988,0.199997l-0.299988,0.199997l-0.200012,0.300003l-1,0.5l-1,0.5l-0.200012,0.300003l-0.299988,0.199997l-0.299988,0.199997q-0.200012,0.300003 -8.700012,9.600006q-8.5,9.199997 -9.5,9.400009q-1,0.299988 -10.799988,10.599976q-9.700012,10.200012 -20.400024,20l-10.799988,9.700012l-0.200012,0.299988l-0.299988,0.200012l-0.299988,0.200012l-0.200012,0.299988l-1,0.5l-1,0.5l-1,0l-1,0l-0.200012,-0.299988l-0.299988,-0.200012l-0.299988,-0.200012l-0.200012,-0.299988l-0.200012,-0.299988l-0.299988,-0.200012l-0.5,-1.5l-0.5,-1.5l-0.5,-2q-0.5,-2 -2.5,-27.5l-2,-25.5l-0.5,-1.5l-0.5,-1.5l-0.299988,0.199997l-0.200012,0.300003l-0.200012,0.300003l-0.299988,0.199997l-0.5,2l-0.5,2l0.5,26q0.5,26 1.5,41.5q1,15.5 -2.5,29.5q-3.5,14 -8.5,24.5q-5,10.5 -7.299988,13.700012q-2.200012,3.299988 -2.400024,3.599976l-0.299988,0.200012l-0.299988,0.200012l-0.200012,0.299988l-0.200012,0.299988l-0.299988,0.200012l-0.299988,0.200012l-0.200012,0.299988l-1,0l-1,0l-1.5,-0.5q-1.5,-0.5 -5.5,-4.5q-4,-4 -10.5,-13q-6.5,-9 -11.700012,-22.700012q-5.299988,-13.799988 -7.299988,-29.799988q-2,-16 -1.5,-47.5q0.5,-31.5 -2,-58.5l-2.5,-27l-0.299988,-1.5l-0.200012,-1.5l-1,0l-1,0l-0.200012,3l-0.299988,3l-0.5,5.5q-0.5,5.5 -1,17q-0.5,11.5 -2,27q-1.5,15.5 -3.799988,18.699997q-2.200012,3.300003 -7.200012,3.800003q-5,0.5 -14.5,-2q-9.5,-2.5 -18.5,-3.800003l-9,-1.199997l0.200012,1l0.299988,1l0.299988,0.199997l0.200012,0.300003l1.5,0.5l1.5,0.5l1.5,0.5l1.5,0.5l1.5,0.5q1.5,0.5 7,2.5q5.5,2 16.299988,7.700012q10.700012,5.799988 13.200012,9.799988q2.5,4 2.5,17.5q0,13.5 -5.299988,31.299988q-5.200012,17.700012 -16.200012,16.200012q-11,-1.5 -27.5,-7q-16.5,-5.5 -33,-13.200012q-16.5,-7.799988 -18.700012,-12.799988q-2.299988,-5 -6.799988,-32l-4.5,-27l-0.5,-1.5l-0.5,-1.5l-0.299988,-0.199997l-0.200012,-0.300003l-1,0l-1,0l-0.200012,0.300003l-0.299988,0.199997l-0.5,1l-0.5,1l0,33q0,33 -5.700012,38.200012q-5.799988,5.299988 -29.299988,21.299988q-23.5,16 -23.699997,16.299988l-0.300003,0.200012l-0.300003,0.200012l-0.199997,0.299988l-0.199997,0.299988l-0.300003,0.200012l-0.300003,0.200012l-0.199997,0.299988l-0.199997,0.299988l-0.300003,0.200012l-0.300003,0.200012l-0.199997,0.299988l-1,0.5l-1,0.5l-0.199997,0.299988l-0.300003,0.200012l-0.300003,1.5l-0.199997,1.5l1,-0.200012l1,-0.299988l1.5,-0.5l1.5,-0.5l1.5,-0.5l1.5,-0.5l0.199997,-0.299988l0.300003,-0.200012l25.300003,-13.200012q25.199997,-13.299988 29.699997,-14.799988q4.5,-1.5 9.5,-1q5,0.5 26,11q21,10.5 46.799988,25.799988q25.700012,15.200012 38.700012,24.700012q13,9.5 13.700012,10.700012q0.799988,1.299988 1,1.599976l0.299988,0.200012l0.299988,0.200012l0.200012,0.299988l0.200012,0.299988l0.299988,0.200012l0.299988,0.200012l0.200012,0.299988l0.200012,0.299988l0.299988,0.200012l0.299988,0.200012l0.200012,0.299988l0.200012,0.299988l0.299988,0.200012l0.299988,0.200012l0.200012,0.299988l0.200012,0.299988l0.299988,0.200012l0,1l0,1l-0.299988,0.200012l-0.200012,0.299988l-0.200012,0.299988l-0.299988,0.200012l-0.299988,0.200012l-0.200012,0.299988l-2,0.5l-2,0.5l-3,0q-3,0 -8,-0.5q-5,-0.5 -28.5,-1.5l-23.5,-1l-1,0.5l-1,0.5l-0.200012,0.299988l-0.299988,0.200012l0,1l0,1l0.299988,0.200012l0.200012,0.299988l0.200012,0.299988l0.299988,0.200012l0.299988,0.200012l0.200012,0.299988l2.5,0.5l2.5,0.5l17.5,3q17.5,3 25.299988,7.299988q7.700012,4.200012 12.200012,13.200012q4.5,9 7,20.5q2.5,11.5 2.5,13.5q0,2 -0.299988,2.5l-0.200012,0.5l-0.200012,0l-0.299988,0l-0.299988,0.200012l-0.200012,0.299988l-0.200012,0.299988l-0.299988,0.200012l-0.299988,0.200012l-0.200012,0.299988l-1,0.5q-1,0.5 -5.5,3q-4.5,2.5 -20,7q-15.5,4.5 -30,5q-14.5,0.5 -19.700012,5.799988q-5.299988,5.200012 -14.599976,10.400024q-9.200012,5.299988 -17.200012,7.299988q-8,2 -17,1q-9,-1 -15.799988,-5.299988q-6.700012,-4.200012 -11.700012,-11.200012q-5,-7 -7.699997,-15l-2.800003,-8l-2,0.200012q-2,0.299988 -5,1.799988q-3,1.5 -19.5,8.5q-16.5,7 -32,11q-15.5,4 -35.5,4q-20,0 -30,-3q-10,-3 -19.5,-9q-9.5,-6 -15.300003,-13.700012q-5.699997,-7.799988 -8.699997,-16.799988q-3,-9 -3.5,-21.5q-0.5,-12.5 2.5,-24q3,-11.5 8.5,-22.5q5.5,-11 14.199997,-24q8.800003,-13 9.800003,-13q1,0 8,-7.799988l7,-7.700012l0.199997,-0.299988l0.300003,-0.200012l0.300003,-0.200012l0.199997,-0.299988l0.199997,-0.299988l0.300003,-0.200012l0.300003,-0.200012l0.199997,-0.299988l0.199997,-0.299988l0.300003,-0.200012l0.300003,-0.200012l0.199997,-0.299988l0.199997,-0.299988l0.300003,-0.200012l0.300003,-0.200012l0.199997,-0.299988l0.199997,-0.299988l0.300003,-0.200012l0.300003,-1l0.199997,-1l-1.5,0.200012l-1.5,0.299988l-2.5,0.5q-2.5,0.5 -7,1q-4.5,0.5 -12,-0.5q-7.5,-1 -14.300003,-5.299988q-6.699997,-4.200012 -11.699997,-12.700012q-5,-8.5 -7,-22q-2,-13.5 -1,-25.5q1,-12 3.5,-21.5q2.5,-9.5 8.5,-23q6,-13.5 14,-25.5q8,-12 18.300003,-21.199997q10.199997,-9.300003 21.199997,-15.800003q11,-6.5 25,-10.199997q14,-3.800003 13.800003,-16.800003q-0.300003,-13 0.699997,-17q1,-4 5.5,-13q4.5,-9 10.800003,-15.199997q6.199997,-6.300003 14.699997,-11.800003q8.5,-5.5 22,-10q13.5,-4.5 29,-5q15.5,-0.5 21.5,0.5q6,1 18,5.5q12,4.5 17,8l5,3.5l1,0.5l1,0.5l0.200012,0.300003l0.299988,0.199997l0.299988,0.199997l0.200012,0.300003l0.200012,0.300003l0.299988,0.199997l0.299988,-0.199997l0.200012,-0.300003l0.200012,-0.300003l0.299988,-0.199997l2.5,-9q2.5,-9 8.200012,-16.799999q5.799988,-7.700001 6.799988,-8q1,-0.200001 1,-1.200001q0,-1 11.5,-7.799999q11.5,-6.700001 21.5,-9.700001q10,-3 21,-2.5q11,0.5 20.5,4q9.5,3.5 17.700012,10.799999q8.299988,7.200001 12.599976,13q4.200012,5.700001 5.200012,5.400002q1,-0.200001 4.5,-5q3.5,-4.700001 8,-8.700001q4.5,-4 13,-7.5q8.5,-3.5 22.5,-3.5q14,0 29,5q15,5 28.200012,13.299999q13.299988,8.200001 24.599976,17.399998q11.200012,9.300003 18.700012,17.300003q7.5,8 27.5,12q20,4 34.200012,10.300003q14.299988,6.199997 23.799988,12.699997q9.5,6.5 17,14q7.5,7.5 12,15.5q4.5,8 6.5,16.5q2,8.5 2.299988,15.699997q0.200012,7.300003 13.200012,12.300003q13,5 23.5,11q10.5,6 18.700012,12.699997q8.299988,6.800003 14.799988,15.300003q6.5,8.5 11,18q4.5,9.5 6.5,19q2,9.5 1.5,25q-0.5,15.5 -4,29q-3.5,13.5 -5.5,19.5q-2,6 0,12q2,6 1.5,16.5q-0.5,10.5 -5,20.5q-4.5,10 -13.200012,18.799988q-8.799988,8.700012 -19.799988,14.700012q-11,6 -24.5,10q-13.5,4 -22,5q-8.5,1 -23.5,0.5q-15,-0.5 -29,-3.5q-14,-3 -20,-5q-6,-2 -11,-1q-5,1 -30.5,11q-25.5,10 -44,15q-18.5,5 -26.5,6q-8,1 -25.5,0.5q-17.5,-0.5 -27.5,-3.5q-10,-3 -10.200012,-3.299988q-0.299988,-0.200012 -0.599976,-0.200012z"/>
  <path id="svg_3" fill="#7A5416" fill-rule="evenodd" stroke="#7A5416" stroke-width="0.5px" d="m389.799988,183l0.200012,-3l1,0l1,0l0.200012,1.5l0.299988,1.5l2.5,27q2.5,27 2,58.5q-0.5,31.5 1.5,47.5q2,16 7.299988,29.799988q5.200012,13.700012 11.700012,22.700012q6.5,9 10.5,13q4,4 5.5,4.5l1.5,0.5l1,0l1,0l0.200012,-0.299988l0.299988,-0.200012l0.299988,-0.200012l0.200012,-0.299988l0.200012,-0.299988l0.299988,-0.200012l0.299988,-0.200012q0.200012,-0.299988 2.400024,-3.599976q2.299988,-3.200012 7.299988,-13.700012q5,-10.5 8.5,-24.5q3.5,-14 2.5,-29.5q-1,-15.5 -1.5,-41.5l-0.5,-26l0.5,-2l0.5,-2l0.299988,-0.199997l0.200012,-0.300003l0.200012,-0.300003l0.299988,-0.199997l0.5,1.5l0.5,1.5l2,25.5q2,25.5 2.5,27.5l0.5,2l0.5,1.5l0.5,1.5l0.299988,0.200012l0.200012,0.299988l0.200012,0.299988l0.299988,0.200012l0.299988,0.200012l0.200012,0.299988l1,0l1,0l1,-0.5l1,-0.5l0.200012,-0.299988l0.299988,-0.200012l0.299988,-0.200012l0.200012,-0.299988l10.799988,-9.700012q10.700012,-9.799988 20.400024,-20q9.799988,-10.299988 10.799988,-10.599976q1,-0.200012 9.5,-9.400009q8.5,-9.300003 8.700012,-9.600006l0.299988,-0.199997l0.299988,-0.199997l0.200012,-0.300003l1,-0.5l1,-0.5l0.200012,-0.300003l0.299988,-0.199997l0.299988,-0.199997l0.200012,-0.300003l1,-0.5l1,-0.5l1.5,-0.300003l1.5,-0.199997l-0.200012,1l-0.299988,1l-0.5,1l-0.5,1l-0.5,1l-0.5,1l-0.299988,0.199997l-0.200012,0.300003l-0.200012,0.300003l-0.299988,0.199997l-23.5,28.5q-23.5,28.5 -28.5,38q-5,9.5 -10,27q-5,17.5 -6,22.5q-1,5 -1,16.5l0,11.5l0.5,1l0.5,1l0.299988,0.200012l0.200012,0.299988l7,-1q7,-1 19.200012,-7.299988q12.299988,-6.200012 23.799988,-14.700012q11.5,-8.5 25.200012,-20.299988q13.799988,-11.700012 25.599976,-23.400024q11.700012,-11.799988 15.700012,-18.799988q4,-7 9,-25.5q5,-18.5 5.5,-20l0.5,-1.5l0.5,-1l0.5,-1l0.5,-1.5l0.5,-1.5l0.299988,-0.199997l0.200012,-0.300003l0.200012,-0.300003l0.299988,-0.199997l0.299988,-0.199997l0.200012,-0.300003l0.200012,-0.300003l0.299988,-0.199997l0.299988,-0.199997l0.200012,-0.300003l0.200012,-0.300003l0.299988,-0.199997l0,4.5l0,4.5l0,10.5q0,10.5 1.299988,13.299988q1.200012,2.700012 4.200012,3.700012q3,1 14.5,0q11.5,-1 22,-4q10.5,-3 12.5,-3.5l2,-0.5l2,-0.5l2,-0.5l2,-0.299988l2,-0.200012l0,1l0,1l-1,0.200012l-1,0.299988l-0.200012,0.299988l-0.299988,0.200012l-0.299988,0.200012l-0.200012,0.299988l-0.200012,0.299988l-0.299988,0.200012l-0.299988,0.200012l-0.200012,0.299988l-1,0.5l-1,0.5l-0.200012,0.299988l-0.299988,0.200012l-0.299988,0.200012q-0.200012,0.299988 -2.200012,1.299988q-2,1 -15.5,6.5q-13.5,5.5 -22,9q-8.5,3.5 -48.5,37q-40,33.5 -61,54.5q-21,21 -31,33q-10,12 -14.200012,18.299988q-4.299988,6.200012 -6.299988,12.200012l-2,6l0.299988,0.200012l0.200012,0.299988l0.200012,0.299988l0.299988,0.200012l0.299988,0.5l0.200012,0.5l-1.5,0l-1.5,0l-0.200012,1l-0.299988,1l-2.5,15q-2.5,15 -2.5,50q0,35 3.700012,51.799988q3.799988,16.700012 13.299988,33.700012q9.5,17 17.299988,26.700012q7.700012,9.799988 15.400024,17q7.799988,7.299988 18.799988,13.299988q11,6 15.5,5.5q4.5,-0.5 13,-3.5q8.5,-3 10.5,-3.5l2,-0.5l1,-0.5l1,-0.5l2,-0.5l2,-0.5l1.5,0l1.5,0l-0.200012,0.299988l-0.299988,0.200012l-0.299988,0.200012l-0.200012,0.299988l-1,0.5l-1,0.5l-1,0.5l-1,0.5l-0.200012,0.299988l-0.299988,0.200012l-0.299988,0.200012l-0.200012,0.299988l-1,0.5q-1,0.5 -5,3l-4,2.5l-1,0.5l-1,0.5l-0.200012,0.299988l-0.299988,0.200012l-0.299988,0.200012l-0.200012,0.299988l-1,0.5l-1,0.5l-0.200012,0.299988l-0.299988,0.200012l0,1l0,1l0.299988,0.200012l0.200012,0.299988l2.5,0.5l2.5,0.5l35.5,10q35.5,10 40,9q4.5,-1 17.5,-6.5q13,-5.5 14,-6l1,-0.5l1,-0.5l1,-0.5l1.5,-0.5l1.5,-0.5l1.5,0l1.5,0l-0.200012,0.299988l-0.299988,0.200012l-0.299988,0.200012l-0.200012,0.299988l-1,0.5l-1,0.5l-0.200012,0.299988l-0.299988,0.200012l-0.299988,0.200012l-0.200012,0.299988l-1,0.5l-1,0.5l-1,0.5l-1,0.5l-0.200012,0.299988q-0.299988,0.200012 -8.599976,5l-8.200012,4.700012l-1,0.5l-1,0.5l-1,0.5l-1,0.5l-0.200012,0.299988l-0.299988,0.200012l0,1l0,1l0.299988,0.200012l0.200012,0.299988l1.5,0.5l1.5,0.5l1,0.5l1,0.5l16,7q16,7 17.5,7.5l1.5,0.5l1,0.5l1,0.5l1.5,0.5l1.5,0.5l0.200012,0.299988l0.299988,0.200012l0.299988,0.200012l0.200012,0.299988l1,0.5l1,0.5l-1.5,0l-1.5,0l-2.5,-0.5l-2.5,-0.5l-2,-0.5q-2,-0.5 -58,-15l-56,-14.5l-2,-0.5l-2,-0.5l-1,-0.299988l-1,-0.200012l0.200012,1.5l0.299988,1.5l0.5,1l0.5,1l4,9.5q4,9.5 4.5,10.5l0.5,1l0.5,1l0.5,1l0.5,1l0.5,1l0,1.5l0,1.5l-0.299988,-0.200012l-0.200012,-0.299988l-0.200012,-0.299988l-0.299988,-0.200012l-0.299988,-0.200012l-0.200012,-0.299988l-0.200012,-0.299988l-0.299988,-0.200012l-0.299988,-0.200012l-0.200012,-0.299988l-0.200012,-0.299988l-0.299988,-0.200012l-0.299988,-0.200012l-0.200012,-0.299988l-0.200012,-0.299988l-0.299988,-0.200012l-0.299988,-0.200012l-0.200012,-0.299988l-0.200012,-0.299988l-0.299988,-0.200012l-0.299988,-0.200012l-0.200012,-0.299988l-0.200012,-0.299988l-0.299988,-0.200012l-0.299988,-0.200012l-0.200012,-0.299988l-0.200012,-0.299988q-0.299988,-0.200012 -14.299988,-14.700012q-14,-14.5 -37.700012,-28.299988l-23.799988,-13.700012l-1,-0.5l-1,-0.5l-0.200012,-0.299988l-0.299988,-0.200012l-0.299988,-0.200012l-0.200012,-0.299988l-1,-0.5l-1,-0.5l-0.200012,-0.299988l-0.299988,-0.200012l-0.299988,0.200012l-0.200012,0.299988l-0.200012,0.299988l-0.299988,0.200012l0,1.5l0,1.5l1.5,7q1.5,7 2,10.5l0.5,3.5l0.5,1.5l0.5,1.5l0.299988,2.5l0.200012,2.5l-1,0l-1,0l-0.200012,-1.5l-0.299988,-1.5l-0.299988,-0.200012l-0.200012,-0.299988l-0.200012,-0.299988l-0.299988,-0.200012l-0.5,-1.5l-0.5,-1.5l-0.5,-1q-0.5,-1 -7.5,-14.5q-7,-13.5 -13.700012,-17.700012q-6.799988,-4.299988 -12,-9q-5.299988,-4.799988 -10,-8q-4.799988,-3.299988 -12.299988,-4.299988q-7.5,-1 -12.5,0.5q-5,1.5 -9.200012,5.799988q-4.299988,4.200012 -15.799988,19.200012q-11.5,15 -18,26l-6.5,11l-0.5,1.5l-0.5,1.5l-0.299988,0.200012l-0.200012,0.299988l-0.200012,0.299988l-0.299988,0.200012l-0.5,1l-0.5,1l-0.299988,0.200012l-0.200012,0.299988l-0.200012,0.299988l-0.299988,0.200012l0,-3l0,-3l0.5,-4q0.5,-4 0.799988,-11.5l0.200012,-7.5l-1.5,0.200012l-1.5,0.299988l-21.5,5q-21.5,5 -38.299988,21.700012q-16.700012,16.799988 -17,17l-0.200012,0.299988l-0.200012,0.299988l-0.299988,0.200012l-0.299988,0.200012l-0.200012,0.299988l-0.200012,0.299988l-0.299988,0.200012l-0.299988,0.200012l-0.200012,0.299988l-0.200012,0.299988l-0.299988,0.200012l-0.299988,0.200012l-0.200012,0.299988l-0.200012,0.299988l-0.299988,0.200012l-0.299988,0.200012l-0.200012,0.299988l-0.200012,0.299988l-0.299988,0.200012l-0.299988,0.200012l-0.200012,0.299988l-0.200012,0.299988l-0.299988,0.200012l-0.299988,0.200012l-0.200012,0.299988l-0.200012,0.299988l-0.299988,0.200012l0,-1l0,-1l0.299988,-0.200012l0.200012,-0.299988l0.200012,-0.299988l0.299988,-0.200012l0.5,-1l0.5,-1l0.299988,-0.200012l0.200012,-0.299988l0.200012,-0.299988l0.299988,-0.200012l0.299988,-0.200012l0.200012,-0.299988l0.200012,-0.299988l0.299988,-0.200012l0.5,-1q0.5,-1 8.5,-11.5l8,-10.5l0.5,-1l0.5,-1l0.299988,-0.200012l0.200012,-0.299988l0.200012,-0.299988l0.299988,-0.200012l0.299988,-0.200012l0.200012,-0.299988l0.200012,-0.299988l0.299988,-0.200012l0,-1l0,-1l-0.299988,-0.200012l-0.200012,-0.299988l-20.799988,-0.700012q-20.700012,-0.799988 -41.000015,15.400024q-20.199997,16.299988 -21.199997,16.799988l-1,0.5l-0.199997,0.299988l-0.300003,0.200012l-0.300003,0.200012l-0.199997,0.299988l-0.199997,0.299988l-0.300003,0.200012l-0.300003,0.200012l-0.199997,0.299988l-0.199997,0.299988l-0.300003,0.200012l-0.300003,0.200012l-0.199997,0.299988l-0.199997,0.299988l-0.300003,0.200012l-0.300003,0.200012l-0.199997,0.299988l-1,0.5l-1,0.5l-0.199997,0.299988l-0.300003,0.200012l0,-1l0,-1l0.300003,-0.200012l0.199997,-0.299988l0.199997,-0.299988l0.300003,-0.200012l0.300003,-0.200012l0.199997,-0.299988l0.199997,-0.299988l0.300003,-0.200012l0.300003,-0.200012l0.199997,-0.299988l0.199997,-0.299988l0.300003,-0.200012l0.300003,-0.200012l0.199997,-0.299988l0.199997,-0.299988l0.300003,-0.200012l0.5,-1l0.5,-1l0.300003,-0.200012q0.199997,-0.299988 0.699997,-0.799988q0.5,-0.5 11,-11.799988q10.5,-11.200012 11.5,-11.400024q1,-0.299988 4,-3.799988l3,-3.5l0.199997,-0.299988l0.300003,-0.200012l0.300003,-0.200012l0.199997,-0.299988l0.199997,-0.299988l0.300003,-0.200012l0.300003,-0.200012l0.199997,-0.299988l0.199997,-0.299988l0.300003,-0.200012l0.300003,-1.5l0.199997,-1.5l-1,-0.200012l-1,-0.299988l-2,-0.5q-2,-0.5 -10,-3l-8,-2.5l-1,-0.5l-1,-0.5l-2,-0.5l-2,-0.5l-0.199997,-0.299988l-0.300003,-0.200012l-0.300003,-0.200012l-0.199997,-0.299988l3.5,0l3.5,0l31,3.5q31,3.5 39.5,3q8.5,-0.5 34.299988,-10.200012q25.700012,-9.799988 27,-11q1.200012,-1.299988 2.200012,-1.799988l1,-0.5l0.200012,-0.299988l0.299988,-0.200012l0.299988,-1l0.200012,-1l1,-0.200012l1,-0.299988l0.200012,-0.299988l0.299988,-0.200012l0.299988,-1.5l0.200012,-1.5l-1,0.200012l-1,0.299988l-8.5,0.5q-8.5,0.5 -32,2.5l-23.5,2l-2.5,0l-2.5,0l-0.200012,-0.299988l-0.299988,-0.200012l-0.299988,-0.200012l-0.200012,-0.299988l1,-0.5l1,-0.5l3,-0.5l3,-0.5l2,-0.5q2,-0.5 34,-6.5q32,-6 37.799988,-14.299988q5.700012,-8.200012 11.700012,-20.200012q6,-12 10.5,-29q4.5,-17 5.5,-43q1,-26 -0.5,-42l-1.5,-16l-0.299988,-2l-0.200012,-2l-1,0l-1,0l0.200012,-0.5q0.299988,-0.5 0.299988,-2.5q0,-2 -2.5,-13.5q-2.5,-11.5 -7,-20.5q-4.5,-9 -12.200012,-13.200012q-7.799988,-4.299988 -25.299988,-7.299988l-17.5,-3l-2.5,-0.5l-2.5,-0.5l-0.200012,-0.299988l-0.299988,-0.200012l-0.299988,-0.200012l-0.200012,-0.299988l-0.200012,-0.299988l-0.299988,-0.200012l0,-1l0,-1l0.299988,-0.200012l0.200012,-0.299988l1,-0.5l1,-0.5l23.5,1q23.5,1 28.5,1.5q5,0.5 8,0.5l3,0l2,-0.5l2,-0.5l0.200012,-0.299988l0.299988,-0.200012l0.299988,-0.200012l0.200012,-0.299988l0.200012,-0.299988l0.299988,-0.200012l0,-1l0,-1l-0.299988,-0.200012l-0.200012,-0.299988l-0.200012,-0.299988l-0.299988,-0.200012l-0.299988,-0.200012l-0.200012,-0.299988l-0.200012,-0.299988l-0.299988,-0.200012l-0.299988,-0.200012l-0.200012,-0.299988l-0.200012,-0.299988l-0.299988,-0.200012l-0.299988,-0.200012l-0.200012,-0.299988l-0.200012,-0.299988l-0.299988,-0.200012l-0.299988,-0.200012q-0.200012,-0.299988 -1,-1.599976q-0.700012,-1.200012 -13.700012,-10.700012q-13,-9.5 -38.700012,-24.700012q-25.799988,-15.299988 -46.799988,-25.799988q-21,-10.5 -26,-11q-5,-0.5 -9.5,1q-4.5,1.5 -29.699997,14.799988l-25.300003,13.200012l-0.300003,0.200012l-0.199997,0.299988l-1.5,0.5l-1.5,0.5l-1.5,0.5l-1.5,0.5l-1,0.299988l-1,0.200012l0.199997,-1.5l0.300003,-1.5l0.300003,-0.200012l0.199997,-0.299988l1,-0.5l1,-0.5l0.199997,-0.299988l0.300003,-0.200012l0.300003,-0.200012l0.199997,-0.299988l0.199997,-0.299988l0.300003,-0.200012l0.300003,-0.200012l0.199997,-0.299988l0.199997,-0.299988l0.300003,-0.200012l0.300003,-0.200012q0.199997,-0.299988 23.699997,-16.299988q23.5,-16 29.299988,-21.299988q5.700012,-5.200012 5.700012,-38.200012l0,-33l0.5,-1l0.5,-1l0.299988,-0.199997l0.200012,-0.300003l1,0l1,0l0.200012,0.300003l0.299988,0.199997l0.5,1.5l0.5,1.5l4.5,27q4.5,27 6.799988,32q2.200012,5 18.700012,12.799988q16.5,7.700012 33,13.200012q16.5,5.5 27.5,7q11,1.5 16.200012,-16.200012q5.299988,-17.799988 5.299988,-31.299988q0,-13.5 -2.5,-17.5q-2.5,-4 -13.200012,-9.799988q-10.799988,-5.700012 -16.299988,-7.700012q-5.5,-2 -7,-2.5l-1.5,-0.5l-1.5,-0.5l-1.5,-0.5l-1.5,-0.5l-1.5,-0.5l-0.200012,-0.300003l-0.299988,-0.199997l-0.299988,-1l-0.200012,-1l9,1.199997q9,1.300003 18.5,3.800003q9.5,2.5 14.5,2q5,-0.5 7.200012,-3.800003q2.299988,-3.199997 3.799988,-18.699997q1.5,-15.5 2,-27q0.5,-11.5 1,-17l0.5,-5.5l0.299988,-3z"/>
  <ellipse ry="19" rx="14.5" id="svg_4" cy="499" cx="411.5" stroke-width="5" stroke="#000000" fill="#ffffff"/>
  <ellipse rx="8" id="svg_5" cy="482" cx="415" stroke-width="5" stroke="#000000" fill="#FF0000"/>
  <ellipse ry="2" id="svg_6" cy="479" cx="408" stroke-width="5" stroke="#000000" fill="#FF0000"/>
  <ellipse id="svg_7" ry="19" rx="14.5" cy="500" cx="449" stroke-width="5" stroke="#000000" fill="#ffffff"/>
  <ellipse ry="12" rx="7" id="svg_8" cy="503" cx="412" stroke-linecap="null" stroke-linejoin="null" stroke-dasharray="null" stroke-width="5" stroke="#000000" fill="#000000"/>
  <ellipse ry="12" rx="7.5" id="svg_9" cy="503" cx="448.5" stroke-linecap="null" stroke-linejoin="null" stroke-dasharray="null" stroke-width="5" stroke="#000000" fill="#000000"/>
  <ellipse id="svg_10" cy="510" cx="486" stroke-linecap="null" stroke-linejoin="null" stroke-dasharray="null" stroke-width="5" stroke="#000000" fill="#000000"/>
  <ellipse id="svg_11" cy="501" cx="449" stroke-linecap="null" stroke-linejoin="null" stroke-dasharray="null" stroke-width="5" stroke="#000000" fill="#000000"/>
  <ellipse id="svg_12" cy="502" cx="444" stroke-linecap="null" stroke-linejoin="null" stroke-dasharray="null" stroke-width="5" stroke="#000000" fill="#000000"/>
  <path d="m417,563.367188c0,0 -0.707092,2.176697 0,3.367188c0.707092,1.190491 2,0 3,1.683594c1,1.683594 1.292908,2.176758 2,3.367188c0.707092,1.190491 2,0 3,0c1,0 2,0 3,0c1,0 2,0 3,0c1,0 2,0 3,0c1,0 1,-1.683594 1,-3.367188c0,-1.683594 1,-3.367188 1,-5.050781l0,-1.683594l0,-1.683594l1,0" id="svg_14" stroke-dasharray="null" stroke-width="0.5px" stroke="#000000" fill="#ffff00"/>
 </g>
</svg>
